<!DOCTYPE svg PUBLIC "-//W3C//DTD SVG 1.1//EN" "http://www.w3.org/Graphics/SVG/1.1/DTD/svg11.dtd">
<!-- Uploaded to: SVG Repo, www.svgrepo.com, Transformed by: SVG Repo Mixer Tools -->
<svg width="64px" height="64px" viewBox="-2.4 -2.4 28.80 28.80" xmlns="http://www.w3.org/2000/svg" fill="none" stroke="#c5c5c5">
<g id="SVGRepo_bgCarrier" stroke-width="0">
<rect x="-2.4" y="-2.4" width="28.80" height="28.80" rx="14.4" fill="#242424" strokewidth="0"/>
</g>
<g id="SVGRepo_tracerCarrier" stroke-linecap="round" stroke-linejoin="round"/>
<g id="SVGRepo_iconCarrier"> <path stroke="#c5c5c5" stroke-linecap="round" stroke-linejoin="round" stroke-width="2" d="M8.5 21c2-2-.5-6 3.5-6m0 0c-3 0-7-1-7-5 0-1.445.116-2.89.963-4V3L9 4.283C9.821 4.101 10.81 4 12 4s2.178.1 3 .283L18 3v2.952c.88 1.116 1 2.582 1 4.048 0 4-4 5-7 5Zm0 0c4 0 1.5 4 3.5 6M3 15c3 0 1.5 4 6 3"/> </g>
</svg>